<svg width="163" height="29" viewBox="0 0 163 29" fill="none" xmlns="http://www.w3.org/2000/svg">
<path d="M13.0517 2.24847C13.0517 1.65214 13.2886 1.08023 13.7103 0.65856C14.1319 0.236891 14.7039 0 15.3002 0C15.8965 0 16.4684 0.236891 16.8901 0.65856C17.3118 1.08023 17.5487 1.65214 17.5487 2.24847C17.5487 2.84479 17.3118 3.4167 16.8901 3.83837C16.4684 4.26004 15.8965 4.49693 15.3002 4.49693C14.7039 4.49693 14.1319 4.26004 13.7103 3.83837C13.2886 3.4167 13.0517 2.84479 13.0517 2.24847ZM16.6119 20.7079C16.6119 20.7079 14.3738 23.1096 11.859 23.1096L11.8939 20.5549C11.8939 20.5549 7.26224 21.0866 6.00485 19.8292L12.088 17.8599C11.9436 17.6599 11.8658 17.4195 11.8656 17.1728V14.2586C11.8656 13.9578 11.9793 13.6688 12.1847 13.449L13.9053 11.6053V7.4953L11.8135 8.19245L10.0983 11.3598C10.0389 11.4695 9.95856 11.5664 9.86172 11.645C9.76489 11.7236 9.65349 11.7824 9.53393 11.8179C9.41436 11.8534 9.28896 11.865 9.16492 11.8519C9.04088 11.8389 8.92062 11.8015 8.81104 11.7419C8.58982 11.622 8.42529 11.4192 8.35362 11.1779C8.28196 10.9367 8.30902 10.6769 8.42886 10.4557L10.3234 6.95862C10.438 6.74678 10.6288 6.58646 10.8573 6.51019C10.8573 6.51019 14.9893 5.15011 15.0917 5.15011H19.1552L22.3703 2.82314C22.5744 2.68179 22.8258 2.62606 23.0706 2.66789C23.3154 2.70971 23.534 2.84577 23.6796 3.04689C23.8252 3.24801 23.8863 3.49819 23.8496 3.74377C23.8129 3.98936 23.6815 4.2108 23.4835 4.36064L20.0194 6.86787C19.8574 6.98495 19.6626 7.04802 19.4627 7.04812H17.6243V10.624L20.0716 10.8174C20.2581 10.8322 20.4385 10.8909 20.598 10.9887C20.7576 11.0865 20.8917 11.2207 20.9895 11.3802L22.9139 14.5211L31.0909 11.9998C31.0913 12.0004 31.0077 17.2152 16.6119 20.7079ZM20.5737 15.2434L19.2821 13.1353C19.2821 13.1353 16.1138 12.8624 16.0074 12.8206C15.9901 12.8411 15.9769 12.8637 15.9593 12.8831L14.2388 14.7268V17.1734C14.2388 17.1816 14.2366 17.1894 14.2366 17.1979L20.5737 15.2434ZM30.1828 21.2825C28.276 21.2825 27.283 22.1738 26.485 22.8888C25.8155 23.4892 25.3749 23.8855 24.3795 23.8855C23.3871 23.8855 22.945 23.4892 22.2754 22.8888C21.4775 22.1738 20.4848 21.2825 18.578 21.2825C16.6697 21.2825 15.677 22.1738 14.8788 22.8888C14.2105 23.4892 13.7687 23.8855 12.7747 23.8855C11.7793 23.8855 11.3374 23.4892 10.6695 22.8888C9.87121 22.1734 8.87856 21.2825 6.97019 21.2825C5.06339 21.2825 4.06916 22.1734 3.27247 22.8888C2.60295 23.4892 2.16111 23.8855 1.16594 23.8855C0.854279 23.8927 0.557787 24.0215 0.339892 24.2445C0.121996 24.4674 0 24.7668 0 25.0785C0 25.3903 0.121996 25.6897 0.339892 25.9126C0.557787 26.1356 0.854279 26.2644 1.16594 26.2716C3.07431 26.2716 4.06697 25.381 4.86492 24.6653C5.53444 24.0652 5.97659 23.6689 6.9705 23.6689C7.96441 23.6689 8.40782 24.0652 9.07608 24.6653C9.87435 25.381 10.8683 26.2716 12.7751 26.2716C14.6819 26.2716 15.6745 25.381 16.4728 24.6653C17.1426 24.0652 17.5841 23.6689 18.5784 23.6689C19.572 23.6689 20.0141 24.0652 20.6821 24.6653C21.4806 25.381 22.473 26.2716 24.3798 26.2716C26.2881 26.2716 27.2808 25.381 28.0788 24.6653C28.747 24.0652 29.1892 23.6689 30.1831 23.6689C30.4995 23.6688 30.803 23.5431 31.0267 23.3193C31.2505 23.0955 31.3761 22.792 31.3761 22.4755C31.376 22.1591 31.2503 21.8556 31.0265 21.6319C30.8027 21.4082 30.4992 21.2825 30.1828 21.2825Z" fill="#FAFAFA"/>
<path d="M58.3 17.8C58.3 18.6267 57.84 19.44 56.92 20.24C56.0133 21.04 54.9067 21.68 53.6 22.16C52.3067 22.6267 51.0733 22.86 49.9 22.86C49.3933 22.86 48.8 22.5533 48.12 21.94C47.44 21.3133 47.1 20.8 47.1 20.4C47.1 20.1733 47.1467 19.9933 47.24 19.86C47.3467 19.7267 47.4667 19.66 47.6 19.66C47.7333 19.66 48.0267 19.7733 48.48 20C48.9467 20.2133 49.2933 20.32 49.52 20.32C49.76 20.32 49.9933 20.3 50.22 20.26C49.8867 20.1267 49.5533 19.8933 49.22 19.56C48.8867 19.2267 48.72 18.9067 48.72 18.6C48.72 18.4667 48.94 17.5 49.38 15.7C49.82 13.8867 50.0533 12.34 50.08 11.06C49.84 10.8333 49.62 10.56 49.42 10.24C49.2333 9.90667 49.14 9.66 49.14 9.5C49.14 9.12667 49.4333 8.82667 50.02 8.6C50.6067 8.37333 51.34 8.26 52.22 8.26C54.0867 8.26 55.58 8.50667 56.7 9C57.8333 9.49333 58.4 10.28 58.4 11.36C58.4 12.04 58.1133 12.7333 57.54 13.44C56.9667 14.1467 56.2133 14.7933 55.28 15.38L55.48 15.44C56.28 15.6533 56.9467 15.9733 57.48 16.4C58.0267 16.8133 58.3 17.28 58.3 17.8ZM54.76 10.82C54.3467 10.82 53.3733 10.9667 51.84 11.26C52.32 11.7933 52.56 12.24 52.56 12.6C52.56 12.9467 52.4467 13.5933 52.22 14.54C52.4333 14.38 52.8133 14.1467 53.36 13.84C53.9067 13.5333 54.2467 13.3333 54.38 13.24C54.5267 13.1333 54.72 12.98 54.96 12.78C55.4133 12.42 55.64 12.0067 55.64 11.54C55.64 11.06 55.3467 10.82 54.76 10.82ZM55.78 17.72C55.78 17.4533 55.3933 17.2267 54.62 17.04C53.86 16.84 53.2267 16.74 52.72 16.74C52.44 16.74 52.14 16.5333 51.82 16.12C51.22 18.5867 50.86 19.94 50.74 20.18C51.86 19.94 52.98 19.5733 54.1 19.08C55.22 18.5867 55.78 18.1333 55.78 17.72ZM68.4805 17.08C68.7205 17.2933 68.8405 17.4867 68.8405 17.66C68.8405 17.8333 68.7605 18.1933 68.6005 18.74C68.4405 19.2867 68.3338 19.7133 68.2805 20.02C68.2271 20.3133 68.1805 20.5467 68.1405 20.72C68.1138 20.8933 68.0938 21.0333 68.0805 21.14C68.0671 21.2333 68.0405 21.3533 68.0005 21.5C67.9738 21.6467 67.9471 21.7667 67.9205 21.86C67.9071 21.94 67.8805 22.04 67.8405 22.16C67.8138 22.2667 67.7805 22.3533 67.7405 22.42C67.7005 22.4733 67.6538 22.5333 67.6005 22.6C67.5205 22.7067 67.3871 22.76 67.2005 22.76C67.0138 22.76 66.7805 22.5733 66.5005 22.2C66.2338 21.8267 66.0338 21.3733 65.9005 20.84C64.6471 22.12 63.5938 22.76 62.7405 22.76C62.1671 22.76 61.5471 22.4467 60.8805 21.82C60.2138 21.18 59.8805 20.5467 59.8805 19.92C59.8805 19.28 60.1671 18.3733 60.7405 17.2C61.3138 16.0267 62.0938 14.94 63.0805 13.94C64.0805 12.94 65.0671 12.44 66.0405 12.44C66.6005 12.44 67.2471 12.7667 67.9805 13.42C68.7138 14.0733 69.0805 14.6733 69.0805 15.22C69.0805 15.7533 68.8805 16.3733 68.4805 17.08ZM62.6605 20.24C63.1938 20.24 63.9005 19.88 64.7805 19.16C65.6738 18.4267 66.2271 17.5067 66.4405 16.4C66.4538 16.24 66.5671 16.1467 66.7805 16.12C66.7405 15.36 66.6138 14.98 66.4005 14.98C65.8671 14.98 65.2671 15.3267 64.6005 16.02C63.9471 16.7133 63.4071 17.4533 62.9805 18.24C62.5671 19.0267 62.3605 19.6067 62.3605 19.98C62.3605 20.0867 62.3738 20.16 62.4005 20.2C62.4405 20.2267 62.5271 20.24 62.6605 20.24ZM72.1358 9.94C72.1358 9.59333 72.2891 9.24 72.5958 8.88C72.9158 8.50667 73.2224 8.32 73.5158 8.32C73.8224 8.32 74.1824 8.68 74.5958 9.4C75.0091 10.12 75.2158 10.6467 75.2158 10.98C75.2158 11.3 75.1091 11.5467 74.8958 11.72C74.6824 11.8933 74.4624 11.98 74.2358 11.98C73.8491 11.98 73.4024 11.7267 72.8958 11.22C72.3891 10.7133 72.1358 10.2867 72.1358 9.94ZM72.4358 12.44C72.9024 12.44 73.3158 12.7067 73.6758 13.24C74.0491 13.7733 74.2358 14.2867 74.2358 14.78C74.2358 15.0333 74.0024 15.9467 73.5358 17.52C73.0824 19.08 72.6291 20.56 72.1758 21.96C72.0158 22.48 71.6891 22.74 71.1958 22.74C70.9024 22.74 70.6424 22.6333 70.4158 22.42C70.2024 22.1933 70.0958 21.9067 70.0958 21.56C70.0958 21.2 70.2624 20.32 70.5958 18.92C70.9424 17.5067 71.2024 16.3067 71.3758 15.32C71.5624 14.32 71.7291 13.5933 71.8758 13.14C72.0358 12.6733 72.2224 12.44 72.4358 12.44ZM78.1911 6.84C78.5111 6.84 78.9244 7.13333 79.4311 7.72C79.9378 8.30667 80.1911 8.86667 80.1911 9.4C80.1911 9.93333 80.1111 10.8867 79.9511 12.26C79.7911 13.62 79.6244 14.7067 79.4511 15.52C78.3444 20.3467 77.5711 22.76 77.1311 22.76C76.8378 22.76 76.4711 22.5267 76.0311 22.06C75.6044 21.58 75.3911 21.1867 75.3911 20.88C75.3911 20.8533 75.5711 20.16 75.9311 18.8C76.2911 17.44 76.6511 15.6933 77.0111 13.56C77.3844 11.4133 77.5711 9.36667 77.5711 7.42C77.5711 7.03333 77.7778 6.84 78.1911 6.84ZM89.6436 16.18C89.6436 16.8333 89.1969 17.42 88.3036 17.94C87.4236 18.46 86.5169 18.72 85.5836 18.72C84.6503 18.72 83.8836 18.6533 83.2836 18.52C83.1636 18.88 83.1036 19.24 83.1036 19.6C83.1036 19.96 83.1636 20.22 83.2836 20.38C83.4036 20.5267 83.7036 20.6 84.1836 20.6C85.1836 20.6 86.0369 20.5067 86.7436 20.32C87.4636 20.1333 87.8369 20.04 87.8636 20.04C88.4103 20.04 88.6836 20.22 88.6836 20.58C88.6836 21.1 88.2503 21.5933 87.3836 22.06C86.5303 22.5267 85.5369 22.76 84.4036 22.76C83.2836 22.76 82.3836 22.4067 81.7036 21.7C81.0236 20.9933 80.6836 20.16 80.6836 19.2C80.6836 18.2267 80.9636 17.2133 81.5236 16.16C82.0969 15.1067 82.8103 14.2267 83.6636 13.52C84.5169 12.8 85.3636 12.44 86.2036 12.44C87.0569 12.44 87.8436 12.86 88.5636 13.7C89.2836 14.5267 89.6436 15.3533 89.6436 16.18ZM87.3236 15.86C87.3236 15.7267 87.1836 15.5333 86.9036 15.28C86.6236 15.0267 86.3569 14.9 86.1036 14.9C85.8636 14.9 85.5503 15.08 85.1636 15.44C84.7769 15.7867 84.4103 16.24 84.0636 16.8C84.1836 16.8133 84.3569 16.82 84.5836 16.82C86.4103 16.82 87.3236 16.5 87.3236 15.86ZM97.9092 12.94C97.9892 12.6067 98.2092 12.44 98.5692 12.44C98.9292 12.44 99.2959 12.6667 99.6692 13.12C100.056 13.5733 100.249 14.0867 100.249 14.66C100.249 14.9933 100.129 15.52 99.8892 16.24C99.6492 16.96 99.4759 17.4733 99.3692 17.78C99.2759 18.0867 99.1359 18.5067 98.9492 19.04C98.7626 19.56 98.5892 20.0467 98.4292 20.5C98.2826 20.94 98.0759 21.5333 97.8092 22.28C97.5559 23.0267 97.3226 23.72 97.1092 24.36C96.6959 25.56 96.1892 26.4867 95.5892 27.14C95.0026 27.7933 94.2359 28.12 93.2892 28.12C92.3426 28.12 91.4959 27.8667 90.7492 27.36C90.0026 26.8667 89.6292 26.3667 89.6292 25.86C89.6292 25.5533 89.7626 25.2133 90.0292 24.84C90.3092 24.4667 90.5426 24.28 90.7292 24.28C90.9292 24.28 91.1826 24.4333 91.4892 24.74C91.8092 25.06 92.1359 25.3733 92.4692 25.68C92.8026 26 93.0959 26.16 93.3492 26.16C93.5226 26.16 93.6626 26.08 93.7692 25.92C93.8892 25.76 93.9826 25.6133 94.0492 25.48C94.1292 25.36 94.2092 25.1867 94.2892 24.96C94.3692 24.7467 94.4426 24.5467 94.5092 24.36C94.5759 24.1733 94.6559 23.9267 94.7492 23.62C94.8426 23.3133 94.9226 23.04 94.9892 22.8C95.2159 22.08 95.4092 21.44 95.5692 20.88C95.1292 21.4533 94.6759 21.9133 94.2092 22.26C93.7426 22.5933 93.3092 22.76 92.9092 22.76C92.5226 22.76 92.0359 22.4667 91.4492 21.88C90.8759 21.28 90.5892 20.6267 90.5892 19.92C90.5892 19.2 90.7426 18.24 91.0492 17.04C91.3692 15.84 91.7626 14.7733 92.2292 13.84C92.6959 12.9067 93.1092 12.44 93.4692 12.44C93.8826 12.44 94.2692 12.62 94.6292 12.98C95.0026 13.3267 95.1892 13.6667 95.1892 14C95.1892 14.32 95.0226 14.84 94.6892 15.56C94.3692 16.28 94.0426 17.0667 93.7092 17.92C93.3759 18.7733 93.2092 19.5 93.2092 20.1C93.2092 20.18 93.2426 20.22 93.3092 20.22C93.4826 20.22 93.8492 19.9 94.4092 19.26C94.9692 18.6067 95.5959 17.6867 96.2892 16.5C96.9959 15.3 97.5359 14.1133 97.9092 12.94ZM103.5 5.36C104.193 5.36 104.76 5.60667 105.2 6.1C105.653 6.59333 105.88 7.26 105.88 8.1C105.88 8.94 105.5 9.87333 104.74 10.9C103.993 11.9267 103.307 12.44 102.68 12.44C102.053 12.44 101.74 12.1733 101.74 11.64C101.74 11.4 101.987 10.94 102.48 10.26C102.973 9.56667 103.22 8.99333 103.22 8.54C103.22 8.07333 103.04 7.69333 102.68 7.4C102.32 7.10667 102.14 6.82667 102.14 6.56C102.14 6.29333 102.28 6.02667 102.56 5.76C102.84 5.49333 103.153 5.36 103.5 5.36ZM114.251 12.46C114.758 12.46 115.258 12.76 115.751 13.36C116.244 13.96 116.491 14.5 116.491 14.98C116.491 15.3 116.351 15.46 116.071 15.46C115.911 15.46 115.678 15.4 115.371 15.28C115.064 15.1467 114.751 15.08 114.431 15.08C114.124 15.08 113.664 15.1867 113.051 15.4C112.451 15.6133 112.151 15.8933 112.151 16.24C112.151 16.3733 112.331 16.5667 112.691 16.82C113.051 17.0733 113.444 17.3333 113.871 17.6C114.298 17.8667 114.691 18.24 115.051 18.72C115.411 19.1867 115.591 19.7 115.591 20.26C115.591 20.8067 115.184 21.36 114.371 21.92C113.571 22.48 112.624 22.76 111.531 22.76C110.451 22.76 109.524 22.5133 108.751 22.02C107.978 21.5267 107.591 21.02 107.591 20.5C107.591 19.98 107.804 19.72 108.231 19.72C108.404 19.72 108.611 19.7867 108.851 19.92C109.518 20.3067 110.344 20.5 111.331 20.5C112.331 20.5 112.831 20.3667 112.831 20.1C112.831 19.8333 112.638 19.54 112.251 19.22C111.878 18.8867 111.464 18.58 111.011 18.3C110.571 18.02 110.158 17.68 109.771 17.28C109.398 16.8667 109.211 16.4667 109.211 16.08C109.211 15.36 109.864 14.58 111.171 13.74C112.478 12.8867 113.504 12.46 114.251 12.46ZM134.382 18.6C134.382 19.7333 133.842 20.7067 132.762 21.52C131.682 22.3333 130.449 22.74 129.062 22.74C127.676 22.74 126.556 22.4 125.702 21.72C124.862 21.0267 124.442 20.3133 124.442 19.58C124.442 18.8467 124.649 18.48 125.062 18.48C125.382 18.48 125.716 18.64 126.062 18.96C126.409 19.28 126.796 19.6 127.222 19.92C127.662 20.24 128.156 20.4 128.702 20.4C129.249 20.4 129.869 20.1733 130.562 19.72C131.256 19.2667 131.602 18.8867 131.602 18.58C131.602 18.2733 131.222 17.76 130.462 17.04C129.716 16.32 128.962 15.58 128.202 14.82C127.456 14.0467 127.082 13.4533 127.082 13.04C127.082 12.6133 127.156 12.1533 127.302 11.66C127.462 11.1667 127.656 10.8267 127.882 10.64C128.602 9.93333 129.529 9.32667 130.662 8.82C131.809 8.3 132.816 8.04 133.682 8.04C134.189 8.04 134.609 8.26 134.942 8.7C135.276 9.12667 135.442 9.57333 135.442 10.04C135.442 10.2267 135.289 10.38 134.982 10.5C134.689 10.6067 134.256 10.72 133.682 10.84C133.122 10.96 132.549 11.1333 131.962 11.36C130.602 11.8667 129.922 12.2933 129.922 12.64C129.922 12.8 130.156 13.0933 130.622 13.52C131.089 13.9333 131.596 14.3733 132.142 14.84C132.702 15.2933 133.216 15.8733 133.682 16.58C134.149 17.2733 134.382 17.9467 134.382 18.6ZM142.958 12.94C143.064 12.6067 143.278 12.44 143.598 12.44C143.918 12.44 144.284 12.7133 144.698 13.26C145.124 13.8067 145.338 14.28 145.338 14.68C145.338 14.8267 145.031 15.8067 144.418 17.62C143.804 19.4333 143.331 20.8667 142.998 21.92C142.811 22.48 142.498 22.76 142.058 22.76C141.791 22.76 141.564 22.6667 141.378 22.48C141.204 22.28 141.118 21.9733 141.118 21.56C141.118 21.1467 141.198 20.56 141.358 19.8C139.984 21.7733 138.891 22.76 138.077 22.76C137.651 22.76 137.138 22.4867 136.538 21.94C135.938 21.38 135.638 20.84 135.638 20.32C135.638 19.04 135.998 17.4067 136.718 15.42C137.451 13.4333 138.138 12.44 138.778 12.44C139.164 12.44 139.504 12.6133 139.798 12.96C140.104 13.3067 140.258 13.6867 140.258 14.1C140.258 14.26 140.091 14.7067 139.758 15.44C138.744 17.64 138.238 19.1933 138.238 20.1C138.238 20.18 138.271 20.22 138.338 20.22C138.538 20.22 138.911 19.9067 139.458 19.28C140.018 18.64 140.638 17.7333 141.317 16.56C142.011 15.3733 142.558 14.1667 142.958 12.94ZM146.764 15.82L146.644 13.56C146.644 12.8133 146.877 12.44 147.344 12.44C147.611 12.44 147.871 12.54 148.124 12.74C148.391 12.94 148.591 13.2533 148.724 13.68C149.177 13.28 149.671 12.96 150.204 12.72C150.751 12.4667 151.231 12.34 151.644 12.34C152.617 12.34 153.104 12.5733 153.104 13.04C153.104 13.28 153.057 13.46 152.964 13.58C152.884 13.6867 152.817 13.7667 152.764 13.82C152.724 13.8733 152.644 13.9467 152.524 14.04C152.417 14.12 152.337 14.18 152.284 14.22C151.977 14.42 151.757 14.56 151.624 14.64C151.024 15.0133 150.511 15.4667 150.084 16C149.657 16.52 149.337 17.2467 149.124 18.18C148.764 19.7133 148.411 20.86 148.064 21.62C147.731 22.3667 147.351 22.74 146.924 22.74C146.511 22.74 146.197 22.54 145.984 22.14C145.784 21.74 145.684 21.3667 145.684 21.02C145.684 20.66 145.811 20.1267 146.064 19.42C146.331 18.7133 146.511 18.1067 146.604 17.6C146.711 17.08 146.764 16.4867 146.764 15.82ZM160.65 10.84C160.597 10.5333 160.51 10.2533 160.39 10C160.27 9.74667 160.123 9.62 159.95 9.62C159.79 9.62 159.623 9.74 159.45 9.98C159.29 10.22 159.13 10.6133 158.97 11.16C158.717 12.0133 158.463 13.0067 158.21 14.14C159.223 14.0867 159.983 14.06 160.49 14.06C161.01 14.06 161.397 14.14 161.65 14.3C161.903 14.4467 162.03 14.6267 162.03 14.84C162.03 15.2533 161.657 15.5733 160.91 15.8C160.163 16.0267 159.083 16.2467 157.67 16.46C157.003 19.2467 156.537 20.9933 156.27 21.7C156.003 22.3933 155.71 22.74 155.39 22.74C155.137 22.74 154.837 22.5333 154.49 22.12C154.157 21.6933 153.99 21.3733 153.99 21.16C153.99 20.9467 154.037 20.6933 154.13 20.4C154.543 19.24 154.857 18.12 155.07 17.04C154.67 17.1467 154.31 17.2 153.99 17.2C153.683 17.2 153.377 17.06 153.07 16.78C152.763 16.4867 152.61 16.1333 152.61 15.72C152.61 15.24 153.57 14.8267 155.49 14.48C155.877 11.92 156.417 10.0667 157.11 8.92C157.803 7.76 158.803 7.18 160.11 7.18C160.737 7.18 161.31 7.48667 161.83 8.1C162.35 8.71333 162.61 9.44 162.61 10.28C162.61 10.8267 162.523 11.26 162.35 11.58C162.177 11.8867 161.95 12.04 161.67 12.04C161.39 12.04 161.163 11.9133 160.99 11.66C160.83 11.4067 160.717 11.1333 160.65 10.84Z" fill="#FAFAFA"/>
</svg>
